<?xml version="1.0" standalone="no"?><!DOCTYPE svg PUBLIC "-//W3C//DTD SVG 1.1//EN" "http://www.w3.org/Graphics/SVG/1.1/DTD/svg11.dtd"><svg width="100%" height="100%" viewBox="0 0 1792 1408" version="1.1" xmlns="http://www.w3.org/2000/svg" xmlns:xlink="http://www.w3.org/1999/xlink" xml:space="preserve" style="fill-rule:evenodd;clip-rule:evenodd;stroke-linejoin:round;stroke-miterlimit:1.41421;"><path d="M1792,454l0,794c0,44 -15.667,81.667 -47,113c-31.333,31.333 -69,47 -113,47l-1472,0c-44,0 -81.667,-15.667 -113,-47c-31.333,-31.333 -47,-69 -47,-113l0,-794c29.333,32.667 63,61.667 101,87c241.333,164 407,279 497,345c38,28 68.833,49.833 92.5,65.5c23.667,15.667 55.167,31.667 94.5,48c39.333,16.333 76,24.5 110,24.5l2,0c34,0 70.667,-8.167 110,-24.5c39.333,-16.333 70.833,-32.333 94.5,-48c23.667,-15.667 54.5,-37.5 92.5,-65.5c113.333,-82 279.333,-197 498,-345c38,-26 71.333,-55 100,-87ZM1792,160c0,52.667 -16.333,103 -49,151c-32.667,48 -73.333,89 -122,123c-250.667,174 -406.667,282.333 -468,325c-6.667,4.667 -20.833,14.833 -42.5,30.5c-21.667,15.667 -39.667,28.333 -54,38c-14.333,9.667 -31.667,20.5 -52,32.5c-20.333,12 -39.5,21 -57.5,27c-18,6 -34.667,9 -50,9l-2,0c-15.333,0 -32,-3 -50,-9c-18,-6 -37.167,-15 -57.5,-27c-20.333,-12 -37.667,-22.833 -52,-32.5c-14.333,-9.667 -32.333,-22.333 -54,-38c-21.667,-15.667 -35.833,-25.833 -42.5,-30.5c-60.667,-42.667 -148,-103.5 -262,-182.5c-114,-79 -182.333,-126.5 -205,-142.5c-41.333,-28 -80.333,-66.5 -117,-115.5c-36.667,-49 -55,-94.5 -55,-136.5c0,-52 13.833,-95.333 41.5,-130c27.667,-34.667 67.167,-52 118.5,-52l1472,0c43.333,0 80.833,15.667 112.5,47c31.667,31.333 47.5,69 47.5,113Z" style="fill:#e0a724;fill-rule:nonzero;"/></svg>