<?xml version="1.0" standalone="no"?><!DOCTYPE svg PUBLIC "-//W3C//DTD SVG 1.1//EN" "http://www.w3.org/Graphics/SVG/1.1/DTD/svg11.dtd"><svg width="100%" height="100%" viewBox="0 0 363 90" version="1.1" xmlns="http://www.w3.org/2000/svg" xmlns:xlink="http://www.w3.org/1999/xlink" xml:space="preserve" style="fill-rule:evenodd;clip-rule:evenodd;stroke-linejoin:round;stroke-miterlimit:1.41421;"><path d="M15.187,55.742l13.448,-13.426l0,-42.316l-13.448,13.428l0,42.314ZM42.083,13.428l0,42.314l13.446,-13.426l0,-42.316l-13.446,13.428Z" style="fill:#dda128;"/><path d="M175.837,50.82c-1.237,0 -2.804,-0.556 -3.133,-2.412l-0.516,0c0,0.721 -0.185,2.02 -0.433,2.844c0.661,0.371 1.856,1.011 3.938,1.011c3.566,0 5.483,-2.021 5.483,-4.7c0,-0.804 -0.144,-1.629 -0.618,-2.33c-0.557,-0.845 -1.382,-1.34 -1.979,-1.587c-3.051,-1.217 -3.979,-1.588 -3.979,-2.886c0,-1.753 1.917,-1.794 2.329,-1.794c1.073,0 2.289,0.453 2.681,2.02l0.453,0c0.041,-0.515 0.289,-1.731 0.681,-2.432c-0.804,-0.433 -1.856,-0.989 -3.815,-0.989c-3.112,0 -5.009,1.607 -5.009,4.452c0,2.268 1.279,3.34 3.154,4.165c2.515,1.091 3.237,1.421 3.237,2.576c0,1.052 -0.742,2.062 -2.474,2.062ZM132.022,65.56c0.111,1.001 0.125,1.348 0.125,2.502l0,1.667c0,1.238 -0.014,2.086 -0.208,2.767c-0.375,1.32 -1.46,1.64 -2.183,1.64c-0.834,0 -1.598,-0.404 -1.932,-1.029c-0.25,-0.472 -0.389,-1.209 -0.389,-2.793c0,-1.196 0.041,-3.642 0.181,-4.754c-0.376,0.069 -0.848,0.083 -1.279,0.083c-0.376,0 -0.806,-0.028 -1.348,-0.083c0.069,0.486 0.125,1.625 0.125,2.419l0,3.627c0,0.612 0,1.613 0.806,2.599c0.737,0.904 2.072,1.154 3.378,1.154c0.903,0 1.709,-0.153 2.363,-0.542c1.737,-1.029 1.807,-2.711 1.807,-4.073c0,-1.347 0.055,-3.989 0.264,-5.184c-0.209,0.042 -0.528,0.083 -0.82,0.083c-0.278,0 -0.639,-0.028 -0.89,-0.083l0,0ZM234.592,52.016c1.155,-0.082 2.496,-0.165 3.815,-0.165c1.422,0 3.339,0.041 4.658,0.165c-0.062,-0.371 -0.102,-0.722 -0.102,-1.073c0,-0.289 0.04,-0.618 0.102,-0.968c-1.422,0.289 -3.607,0.308 -4.638,0.308c-0.02,-0.288 -0.041,-0.576 -0.041,-0.886l0,-4.102c1.897,0 3.072,0 4.597,0.165c-0.041,-0.31 -0.102,-0.639 -0.102,-0.969c0,-0.33 0.04,-0.66 0.102,-0.99c-1.587,0.227 -2.928,0.227 -4.597,0.227l0,-2.103c0,-0.742 0.021,-1.463 0.062,-2.206c1.36,0 3.319,0.021 4.679,0.269c-0.082,-0.33 -0.103,-0.681 -0.103,-1.031c0,-0.33 0.041,-0.639 0.103,-0.948c-1.443,0.123 -2.515,0.165 -3.649,0.165c-1.277,0 -2.989,-0.083 -4.782,-0.165c0.124,0.865 0.186,1.793 0.186,2.721l-0.021,7.463c0,1.133 -0.083,3.113 -0.269,4.123l0,0ZM112.322,47.44l0,-5.155l5.277,5.938c2.206,2.597 2.453,2.885 3.113,3.793c0.371,-0.082 0.763,-0.124 1.196,-0.124c0.412,0 0.783,0.061 1.216,0.124c-0.165,-1.464 -0.165,-2.969 -0.165,-4.453c0,-2.289 0.083,-8.082 0.371,-9.854c-0.371,0.082 -0.742,0.123 -1.113,0.123c-0.33,0 -0.824,-0.041 -1.154,-0.123c0.165,1.051 0.268,4.432 0.268,4.823l0,4.68c-1.732,-1.897 -6.164,-6.865 -8.184,-9.503c-0.392,0.062 -0.805,0.123 -1.217,0.123c-0.453,0 -0.907,-0.061 -1.381,-0.123c0.144,1.463 0.144,2.494 0.144,6.205c0,3.401 0,4.309 -0.309,8.102c0.392,-0.063 0.659,-0.124 1.072,-0.124c0.371,0 0.742,0.061 1.113,0.124c-0.082,-0.867 -0.247,-3.649 -0.247,-4.576ZM143.753,65.643c-0.223,0 -0.556,-0.028 -0.779,-0.083c0.111,0.709 0.181,2.988 0.181,3.253l0,3.155c-1.168,-1.279 -4.157,-4.629 -5.518,-6.408c-0.264,0.042 -0.543,0.083 -0.82,0.083c-0.307,0 -0.611,-0.041 -0.932,-0.083c0.098,0.987 0.098,1.682 0.098,4.183c0,2.294 0,2.905 -0.209,5.463c0.264,-0.042 0.445,-0.083 0.723,-0.083c0.25,0 0.5,0.041 0.751,0.083c-0.056,-0.584 -0.167,-2.46 -0.167,-3.086l0,-3.474l3.558,4.002c1.488,1.752 1.654,1.947 2.099,2.558c0.251,-0.056 0.515,-0.083 0.806,-0.083c0.279,0 0.529,0.041 0.82,0.083c-0.111,-0.986 -0.111,-2.001 -0.111,-3.002c0,-1.543 0.056,-5.449 0.25,-6.644c-0.25,0.055 -0.5,0.083 -0.75,0.083l0,0ZM152.149,37.874c-1.277,0 -2.988,-0.083 -4.782,-0.165c0.124,0.865 0.185,1.793 0.185,2.721l-0.02,7.463c0,1.133 -0.082,3.113 -0.268,4.123c1.155,-0.082 2.494,-0.165 3.814,-0.165c1.423,0 3.339,0.041 4.659,0.165c-0.063,-0.371 -0.104,-0.722 -0.104,-1.073c0,-0.289 0.041,-0.618 0.104,-0.968c-1.423,0.289 -3.608,0.308 -4.639,0.308c-0.02,-0.288 -0.041,-0.576 -0.041,-0.886l0,-4.102c1.897,0 3.072,0 4.598,0.165c-0.042,-0.31 -0.104,-0.639 -0.104,-0.969c0,-0.33 0.041,-0.66 0.104,-0.99c-1.588,0.227 -2.928,0.227 -4.598,0.227l0,-2.103c0,-0.742 0.021,-1.463 0.062,-2.206c1.36,0 3.319,0.021 4.679,0.269c-0.082,-0.33 -0.102,-0.681 -0.102,-1.031c0,-0.33 0.041,-0.639 0.102,-0.948c-1.442,0.123 -2.514,0.165 -3.649,0.165l0,0ZM161.614,69.562c-2.057,-0.819 -2.682,-1.07 -2.682,-1.945c0,-1.182 1.292,-1.209 1.571,-1.209c0.722,0 1.542,0.305 1.806,1.362l0.306,0c0.028,-0.348 0.194,-1.168 0.459,-1.641c-0.542,-0.291 -1.251,-0.666 -2.571,-0.666c-2.1,0 -3.379,1.084 -3.379,3.002c0,1.529 0.863,2.252 2.127,2.807c1.696,0.737 2.183,0.959 2.183,1.738c0,0.709 -0.501,1.39 -1.668,1.39c-0.834,0 -1.89,-0.376 -2.113,-1.627l-0.348,0c0,0.487 -0.125,1.363 -0.292,1.919c0.445,0.25 1.251,0.681 2.656,0.681c2.404,0 3.697,-1.362 3.697,-3.169c0,-0.542 -0.098,-1.098 -0.417,-1.571c-0.376,-0.569 -0.932,-0.904 -1.335,-1.071l0,0ZM150.911,65.56c-1.071,0 -2.126,0.083 -3.197,0.083c-0.43,0 -0.862,-0.028 -1.293,-0.083c0.097,0.889 0.14,1.793 0.14,2.682l0,4.212c0,0.917 -0.057,1.835 -0.14,2.752c0.654,-0.069 1.474,-0.083 1.724,-0.083c0.375,0 1.793,0.083 2.279,0.083c3.518,0 5.213,-2.293 5.213,-5.004c0,-3.086 -2.071,-4.642 -4.726,-4.642l0,0ZM152.163,73.357c-0.655,0.696 -1.572,0.848 -2.35,0.848c-0.459,0 -0.75,-0.041 -0.918,-0.069c-0.014,-0.348 -0.027,-0.709 -0.027,-1.057l0,-4.642c0,-0.472 0.042,-1.557 0.042,-1.849c0.167,-0.014 0.403,-0.027 1.112,-0.027c0.598,0 1.334,0.013 2.057,0.638c0.904,0.793 1.056,2.142 1.056,2.99c0,0.513 -0.084,2.209 -0.972,3.168ZM322.413,39.481c0.02,2.474 0.02,5.237 0.02,7.834c0,1.155 0,3.732 -0.206,4.701c0.557,-0.063 1.258,-0.124 1.835,-0.124c0.577,0 1.443,0.042 2.041,0.124c-0.103,-1.134 -0.144,-2.268 -0.144,-3.505c0,-1.361 0.02,-3.938 0.02,-5.154c0,-1.567 0,-2.968 0.041,-3.876c1.154,0 2.475,0.042 3.69,0.186c-0.041,-0.227 -0.103,-0.639 -0.103,-0.969c0,-0.309 0.042,-0.618 0.103,-0.989c-1.339,0.123 -3.009,0.165 -5.566,0.165c-2.433,0 -4.515,-0.042 -5.565,-0.165c0.061,0.288 0.102,0.597 0.102,0.907c0,0.35 -0.02,0.7 -0.102,1.051c1.525,-0.165 2.844,-0.186 3.834,-0.186l0,0ZM143.383,37.709c-0.413,1.649 -0.949,3.257 -1.547,4.844l-1.855,5.05c-1.34,-3.236 -2.494,-6.534 -3.526,-9.894c-0.494,0.062 -1.174,0.123 -1.958,0.123c-0.721,0 -1.443,-0.041 -2.165,-0.123c1.114,2.391 1.238,2.721 4.289,10.616c0.474,1.238 0.948,2.495 1.298,3.773c0.351,-0.082 0.681,-0.123 1.011,-0.123c0.412,0 0.845,0.041 1.257,0.123c1.608,-4.907 3.442,-9.751 5.69,-14.389c-0.248,0.041 -0.68,0.123 -1.154,0.123c-0.413,0 -0.908,-0.061 -1.34,-0.123ZM122.296,67.367c-0.056,-0.501 -0.111,-1.279 -0.153,-1.807c-0.292,0.055 -0.501,0.083 -0.862,0.083c-0.333,0 -0.667,-0.014 -1,-0.083c-0.139,0.43 -0.223,0.694 -0.556,1.487c-0.695,1.668 -1.446,3.322 -2.225,4.962c-0.597,-1.237 -2.335,-5.407 -2.641,-6.449c-0.264,0.028 -0.625,0.083 -0.917,0.083c-0.278,0 -0.737,-0.041 -1.015,-0.083c-0.014,0.542 -0.069,1.084 -0.153,1.612l-0.959,6.394c-0.083,0.57 -0.195,1.098 -0.319,1.64c0.264,-0.042 0.542,-0.083 0.778,-0.083c0.25,0 0.5,0.027 0.751,0.083c0,-0.806 0.069,-1.557 0.125,-2.279c0.111,-1.362 0.292,-2.738 0.486,-4.101c0.653,1.418 1.293,2.85 1.919,4.281c0.5,1.154 0.653,1.64 0.792,2.099c0.125,-0.027 0.278,-0.042 0.514,-0.042c0.222,0 0.403,0.028 0.5,0.042c0.209,-0.569 0.278,-0.75 0.821,-2.029c0.931,-2.183 1.028,-2.433 1.987,-4.393c0.042,0.487 0.292,2.85 0.348,3.392c0.181,1.668 0.208,2.405 0.222,3.03c0.403,-0.056 0.723,-0.097 1.335,-0.097c0.458,0 0.819,0.028 1.264,0.097c-0.208,-1.084 -0.375,-2.196 -0.5,-3.294l-0.542,-4.545ZM160.143,51.892c0.598,0 1.257,0.042 1.834,0.124c-0.082,-0.598 -0.082,-1.217 -0.104,-1.835c-0.041,-1.526 -0.061,-2.659 -0.061,-4.597c0,-0.062 0,-0.124 0.02,-0.124c0.041,0 0.063,0.02 0.082,0.041l2.805,4.35c0.763,1.155 1.113,1.979 1.195,2.165c0.784,-0.082 1.279,-0.124 2.165,-0.124c0.722,0 1.443,0.02 2.144,0.124l0.062,-0.124c-0.413,-0.329 -1.155,-1.34 -1.484,-1.856l-3.195,-5.05c1.174,-0.145 3.257,-1.155 3.257,-3.608c0,-3.669 -3.752,-3.669 -4.494,-3.669c-1.279,0 -2.578,0.123 -3.855,0.123c-0.516,0 -1.341,-0.041 -2.248,-0.123c0.165,1.216 0.165,3.133 0.165,6.329c0,4.144 0.021,6.081 -0.165,7.978c0.516,-0.063 1.34,-0.124 1.877,-0.124l0,0ZM161.854,39.172c0.268,-0.041 0.514,-0.041 0.783,-0.041c1.175,0 2.68,0.124 2.68,2.474c0,2.742 -2.123,2.742 -2.887,2.742c-0.247,0 -0.453,0 -0.618,-0.021l0.042,-5.154ZM128.52,51.892c0.68,0 1.236,0.042 1.875,0.124c-0.186,-1.815 -0.186,-4.886 -0.186,-6.845c0,-2.35 0.063,-5.112 0.207,-7.462c-0.289,0.041 -1.031,0.123 -1.877,0.123c-0.742,0 -1.38,-0.041 -1.937,-0.123c0.165,2.041 0.185,4.72 0.185,6.864c0,0.99 0,5.628 -0.206,7.443c0.64,-0.082 1.299,-0.124 1.939,-0.124l0,0ZM0,89.907l13.601,-13.585l0,-42.311l-13.601,13.581l0,42.315ZM202.34,52.016c1.155,-0.082 2.494,-0.165 3.814,-0.165c1.422,0 3.34,0.041 4.659,0.165c-0.062,-0.371 -0.104,-0.722 -0.104,-1.073c0,-0.289 0.042,-0.618 0.104,-0.968c-1.423,0.289 -3.608,0.308 -4.639,0.308c-0.02,-0.288 -0.041,-0.576 -0.041,-0.886l0,-4.102c1.897,0 3.071,0 4.597,0.165c-0.041,-0.31 -0.103,-0.639 -0.103,-0.969c0,-0.33 0.041,-0.66 0.103,-0.99c-1.587,0.227 -2.927,0.227 -4.597,0.227l0,-2.103c0,-0.742 0.021,-1.463 0.062,-2.206c1.36,0 3.319,0.021 4.679,0.269c-0.082,-0.33 -0.102,-0.681 -0.102,-1.031c0,-0.33 0.041,-0.639 0.102,-0.948c-1.443,0.123 -2.514,0.165 -3.648,0.165c-1.278,0 -2.989,-0.083 -4.783,-0.165c0.124,0.865 0.185,1.793 0.185,2.721l-0.02,7.463c0,1.133 -0.082,3.113 -0.268,4.123l0,0ZM209.535,35.029c0.35,-0.207 0.68,-0.495 0.68,-1.01c0,-0.784 -0.762,-1.031 -1.196,-1.031c-0.392,0 -0.763,0.144 -1.299,0.783l-2.576,3.092l1.257,0l3.134,-1.834ZM105.825,65.56c-1.07,0 -2.127,0.083 -3.197,0.083c-0.431,0 -0.862,-0.028 -1.293,-0.083c0.098,0.889 0.14,1.793 0.14,2.682l0,4.212c0,0.917 -0.056,1.835 -0.14,2.752c0.654,-0.069 1.474,-0.083 1.724,-0.083c0.375,0 1.793,0.083 2.28,0.083c3.516,0 5.212,-2.293 5.212,-5.004c0,-3.086 -2.071,-4.642 -4.726,-4.642ZM107.076,73.357c-0.653,0.696 -1.571,0.848 -2.349,0.848c-0.458,0 -0.75,-0.041 -0.918,-0.069c-0.013,-0.348 -0.027,-0.709 -0.027,-1.057l0,-4.642c0,-0.472 0.042,-1.557 0.042,-1.849c0.166,-0.014 0.403,-0.027 1.111,-0.027c0.598,0 1.335,0.013 2.058,0.638c0.903,0.793 1.056,2.142 1.056,2.99c0,0.513 -0.083,2.209 -0.973,3.168l0,0ZM106.71,45.398c0,-2 0.083,-5.917 0.392,-7.689c-0.309,0.062 -0.783,0.123 -1.216,0.123c-0.412,0 -0.948,-0.041 -1.319,-0.123c0.164,1.484 0.185,1.999 0.185,3.71l0,2.474c0,1.835 -0.021,3.092 -0.309,4.103c-0.557,1.958 -2.165,2.432 -3.237,2.432c-1.236,0 -2.371,-0.598 -2.865,-1.526c-0.371,-0.701 -0.577,-1.793 -0.577,-4.143c0,-1.773 0.062,-5.401 0.268,-7.05c-0.557,0.103 -1.258,0.123 -1.897,0.123c-0.556,0 -1.196,-0.041 -2,-0.123c0.103,0.721 0.186,2.412 0.186,3.586l0,5.381c0,0.907 0,2.391 1.195,3.855c1.093,1.34 3.072,1.711 5.01,1.711c1.34,0 2.536,-0.226 3.505,-0.804c2.576,-1.526 2.679,-4.02 2.679,-6.04l0,0ZM27.048,89.907l13.45,-13.585l0,-42.155l-13.45,13.425l0,42.315ZM218.568,52.016c0.969,-0.104 2.185,-0.124 2.557,-0.124c0.556,0 2.659,0.124 3.38,0.124c5.215,0 7.731,-3.403 7.731,-7.422c0,-4.576 -3.071,-6.885 -7.009,-6.885c-1.588,0 -3.154,0.123 -4.742,0.123c-0.639,0 -1.278,-0.041 -1.917,-0.123c0.144,1.319 0.206,2.659 0.206,3.979l0,6.246c0,1.361 -0.082,2.72 -0.206,4.082l0,0ZM222.196,41.976c0,-0.701 0.062,-2.309 0.062,-2.742c0.247,-0.021 0.598,-0.041 1.65,-0.041c0.885,0 1.978,0.02 3.05,0.948c1.34,1.175 1.567,3.175 1.567,4.432c0,0.763 -0.124,3.279 -1.443,4.7c-0.969,1.032 -2.33,1.258 -3.484,1.258c-0.681,0 -1.113,-0.062 -1.36,-0.103c-0.022,-0.516 -0.042,-1.051 -0.042,-1.567l0,-6.885ZM97.496,65.671c-0.862,0 -2.016,-0.056 -3.225,-0.111c0.083,0.584 0.125,1.21 0.125,1.835l-0.014,5.031c0,0.764 -0.055,2.099 -0.18,2.78c0.778,-0.056 1.682,-0.111 2.571,-0.111c0.959,0 2.252,0.028 3.141,0.111c-0.041,-0.25 -0.069,-0.486 -0.069,-0.723c0,-0.194 0.028,-0.417 0.069,-0.653c-0.959,0.194 -2.432,0.209 -3.127,0.209c-0.014,-0.195 -0.028,-0.39 -0.028,-0.598l0,-2.766c1.279,0 2.071,0 3.1,0.111c-0.028,-0.209 -0.07,-0.43 -0.07,-0.653c0,-0.223 0.028,-0.445 0.07,-0.667c-1.071,0.152 -1.974,0.152 -3.1,0.152l0,-1.418c0,-0.5 0.014,-0.986 0.042,-1.487c0.917,0 2.238,0.014 3.155,0.182c-0.055,-0.223 -0.069,-0.46 -0.069,-0.696c0,-0.222 0.027,-0.431 0.069,-0.639c-0.973,0.083 -1.695,0.111 -2.46,0.111l0,0ZM53.943,89.907l13.448,-13.585l0,-42.311l-13.448,13.581l0,42.315ZM243.163,66.338c1.085,0 2.099,0.528 2.432,1.362l0.306,0c0.042,-0.292 0.14,-1.07 0.403,-1.598c-1.042,-0.5 -2.196,-0.709 -3.349,-0.709c-3.365,0 -5.477,2.099 -5.477,5.032c0,2.765 1.918,4.934 5.323,4.934c1.015,0 2.044,-0.18 2.975,-0.626c0.139,-0.611 0.278,-1.001 0.403,-1.32l-0.236,-0.139c-0.736,0.625 -1.515,1.084 -2.613,1.084c-2.155,0 -3.323,-1.654 -3.323,-3.989c0,-2.196 1.03,-4.031 3.156,-4.031l0,0ZM305.235,65.643c-0.5,0 -0.932,-0.028 -1.307,-0.083c0.112,1.376 0.125,3.183 0.125,4.629c0,0.667 0,3.794 -0.138,5.017c0.43,-0.056 0.875,-0.083 1.306,-0.083c0.459,0 0.834,0.027 1.265,0.083c-0.125,-1.223 -0.125,-3.294 -0.125,-4.614c0,-1.585 0.042,-3.447 0.139,-5.032c-0.195,0.028 -0.695,0.083 -1.265,0.083ZM316.703,51.315c0.206,-0.908 0.412,-1.485 0.597,-1.959l-0.35,-0.206c-1.092,0.928 -2.247,1.608 -3.875,1.608c-3.196,0 -4.928,-2.453 -4.928,-5.917c0,-3.257 1.526,-5.978 4.68,-5.978c1.608,0 3.113,0.784 3.608,2.02l0.453,0c0.062,-0.433 0.206,-1.587 0.598,-2.37c-1.546,-0.742 -3.257,-1.052 -4.968,-1.052c-4.989,0 -8.123,3.113 -8.123,7.463c0,4.102 2.846,7.318 7.897,7.318c1.504,0 3.03,-0.267 4.411,-0.927l0,0ZM312.116,65.56c-0.613,0 -1.21,0.083 -1.822,0.083c-0.292,0 -1.043,-0.028 -1.779,-0.083c0.069,0.68 0.125,1.32 0.125,4.017c0,1.403 0,4.489 -0.181,5.629c0.348,-0.056 0.738,-0.083 1.209,-0.083c0.459,0 0.918,0.027 1.363,0.083c-0.056,-0.75 -0.097,-1.71 -0.097,-2.237l0,-1.877c0.25,0.014 0.875,0.042 1.14,0.042c1.779,0 3.433,-0.737 3.433,-2.863c0,-2.197 -1.502,-2.711 -3.391,-2.711l0,0ZM311.295,70.189c-0.125,0 -0.236,0 -0.334,-0.014l0.029,-3.614c0.152,-0.014 0.305,-0.028 0.458,-0.028c1.098,0 1.627,0.598 1.627,1.751c0,1.71 -1.071,1.905 -1.78,1.905l0,0ZM320.567,71.134c1.778,0 3.432,-0.737 3.432,-2.863c0,-2.197 -1.5,-2.711 -3.391,-2.711c-0.611,0 -1.209,0.083 -1.82,0.083c-0.292,0 -1.043,-0.028 -1.78,-0.083c0.07,0.68 0.125,1.32 0.125,4.017c0,1.403 0,4.489 -0.18,5.629c0.347,-0.056 0.736,-0.083 1.209,-0.083c0.459,0 0.918,0.027 1.362,0.083c-0.056,-0.75 -0.098,-1.71 -0.098,-2.237l0,-1.877c0.251,0.014 0.876,0.042 1.141,0.042l0,0ZM319.482,66.561c0.153,-0.014 0.306,-0.028 0.459,-0.028c1.097,0 1.626,0.598 1.626,1.751c0,1.71 -1.071,1.905 -1.779,1.905c-0.125,0 -0.237,0 -0.333,-0.014l0.027,-3.614ZM301.968,65.56c-0.208,0.028 -0.805,0.083 -1.278,0.083c-0.432,0 -1.029,-0.055 -1.32,-0.083c0.054,0.542 0.11,1.514 0.11,2.085l0,1.779c-0.792,0.042 -1.417,0.042 -2.015,0.042c-0.626,0 -1.223,-0.015 -1.96,-0.042c0,-1.71 0,-2.571 0.097,-3.864c-0.208,0.028 -0.694,0.083 -1.265,0.083c-0.459,0 -0.889,-0.028 -1.306,-0.083c0.042,0.5 0.111,1.376 0.111,2.154l0,4.99c0,1.168 -0.056,1.808 -0.125,2.502c0.417,-0.056 1.001,-0.083 1.307,-0.083c0.5,0 1.014,0.056 1.264,0.083c-0.042,-0.361 -0.083,-1.084 -0.083,-1.668l0,-2.933c0.5,-0.028 1.223,-0.041 1.946,-0.041c0.751,0 1.431,0.013 2.029,0.041l0,2.697c0,1.014 -0.083,1.556 -0.139,1.904c0.446,-0.056 0.904,-0.083 1.363,-0.083c0.417,0 0.847,0.027 1.278,0.083c-0.139,-1.153 -0.139,-2.585 -0.139,-4.267c0,-1.377 0,-4.184 0.125,-5.379l0,0ZM299.303,37.709c0.165,1.051 0.269,4.432 0.269,4.823l0,4.68c-1.732,-1.897 -6.164,-6.865 -8.185,-9.503c-0.391,0.062 -0.803,0.123 -1.216,0.123c-0.454,0 -0.907,-0.061 -1.382,-0.123c0.145,1.463 0.145,2.494 0.145,6.205c0,3.401 0,4.309 -0.308,8.102c0.391,-0.063 0.659,-0.124 1.071,-0.124c0.371,0 0.742,0.061 1.113,0.124c-0.082,-0.867 -0.247,-3.649 -0.247,-4.576l0,-5.155l5.277,5.938c2.206,2.597 2.453,2.885 3.114,3.793c0.371,-0.082 0.762,-0.124 1.195,-0.124c0.412,0 0.783,0.061 1.216,0.124c-0.164,-1.464 -0.164,-2.969 -0.164,-4.453c0,-2.289 0.082,-8.082 0.371,-9.854c-0.371,0.082 -0.742,0.123 -1.113,0.123c-0.331,0 -0.826,-0.041 -1.156,-0.123l0,0ZM289.639,69.562c-2.057,-0.819 -2.682,-1.07 -2.682,-1.945c0,-1.182 1.293,-1.209 1.57,-1.209c0.723,0 1.543,0.305 1.807,1.362l0.306,0c0.027,-0.348 0.194,-1.168 0.459,-1.641c-0.543,-0.291 -1.251,-0.666 -2.572,-0.666c-2.099,0 -3.377,1.084 -3.377,3.002c0,1.529 0.861,2.252 2.126,2.807c1.696,0.737 2.183,0.959 2.183,1.738c0,0.709 -0.5,1.39 -1.668,1.39c-0.834,0 -1.891,-0.376 -2.114,-1.627l-0.346,0c0,0.487 -0.126,1.363 -0.293,1.919c0.445,0.25 1.251,0.681 2.655,0.681c2.405,0 3.697,-1.362 3.697,-3.169c0,-0.542 -0.097,-1.098 -0.417,-1.571c-0.375,-0.569 -0.931,-0.904 -1.334,-1.071l0,0ZM327.99,65.531c-0.237,0 -0.487,-0.027 -0.723,-0.083c-0.96,2.739 -3.072,7.965 -3.92,9.758c0.306,-0.083 0.639,-0.083 0.779,-0.083c0.277,0 0.5,0.041 0.764,0.083c0.236,-1.028 0.598,-2.057 0.834,-2.738c0.542,-0.028 1.084,-0.042 1.599,-0.042c0.5,0 0.972,0.028 1.445,0.042c0.152,0.417 0.486,1.293 0.89,2.738c0.43,-0.083 1.014,-0.083 1.473,-0.083c0.431,0 0.875,0.014 1.307,0.083c-0.862,-2.029 -2.461,-5.921 -3.768,-9.758c-0.222,0.056 -0.459,0.083 -0.68,0.083ZM327.252,71.453c-0.375,0 -0.75,-0.013 -1.126,-0.042l1.182,-3.044l1.112,3.044c-0.389,0.015 -0.778,0.042 -1.168,0.042l0,0ZM362.043,37.709c-0.371,0.082 -0.742,0.123 -1.113,0.123c-0.33,0 -0.824,-0.041 -1.154,-0.123c0.165,1.051 0.267,4.432 0.267,4.823l0,4.68c-1.731,-1.897 -6.164,-6.865 -8.183,-9.503c-0.392,0.062 -0.805,0.123 -1.217,0.123c-0.453,0 -0.907,-0.061 -1.381,-0.123c0.145,1.463 0.145,2.494 0.145,6.205c0,3.401 0,4.309 -0.31,8.102c0.392,-0.063 0.66,-0.124 1.072,-0.124c0.371,0 0.743,0.061 1.114,0.124c-0.083,-0.867 -0.248,-3.649 -0.248,-4.576l0,-5.155l5.278,5.938c2.205,2.597 2.453,2.885 3.112,3.793c0.371,-0.082 0.763,-0.124 1.196,-0.124c0.413,0 0.784,0.061 1.216,0.124c-0.165,-1.464 -0.165,-2.969 -0.165,-4.453c0,-2.289 0.082,-8.082 0.371,-9.854l0,0ZM347.518,65.531c-0.236,0 -0.486,-0.027 -0.723,-0.083c-0.959,2.739 -3.072,7.965 -3.919,9.758c0.305,-0.083 0.639,-0.083 0.778,-0.083c0.278,0 0.501,0.041 0.764,0.083c0.237,-1.028 0.598,-2.057 0.834,-2.738c0.542,-0.028 1.084,-0.042 1.599,-0.042c0.5,0 0.973,0.028 1.445,0.042c0.154,0.417 0.488,1.293 0.89,2.738c0.432,-0.083 1.015,-0.083 1.474,-0.083c0.43,0 0.876,0.014 1.306,0.083c-0.861,-2.029 -2.46,-5.921 -3.766,-9.758c-0.223,0.056 -0.459,0.083 -0.682,0.083l0,0ZM346.782,71.453c-0.375,0 -0.751,-0.013 -1.126,-0.042l1.181,-3.044l1.113,3.044c-0.39,0.015 -0.78,0.042 -1.168,0.042ZM346.309,44.573c0,-4.762 -3.545,-7.153 -7.977,-7.153c-5.196,0 -8.04,3.195 -8.04,7.545c0,4.845 3.319,7.318 7.916,7.318c4.143,0 8.101,-2.412 8.101,-7.71ZM334.043,45.068c0,-3.236 1.196,-6.184 4.33,-6.184c2.679,0 4.184,2.329 4.184,5.731c0,3.938 -1.731,6.205 -4.349,6.205c-2.144,0 -4.165,-1.65 -4.165,-5.752ZM340.82,70.856c-0.458,0 -0.903,-0.014 -1.348,-0.084c0.097,0.737 0.152,1.473 0.152,2.21c0,0.417 -0.013,0.821 -0.027,1.238c-0.43,0.125 -0.876,0.194 -1.32,0.194c-1.975,0 -3.128,-1.626 -3.128,-4.003c0,-2.697 1.529,-4.046 3.391,-4.046c1.697,0 2.364,1.155 2.572,1.516l0.222,-0.041c0.07,-0.405 0.181,-0.932 0.5,-1.654c-1.028,-0.584 -2.321,-0.807 -3.432,-0.807c-4.114,0 -5.782,2.571 -5.782,5.102c0,2.905 2.168,4.892 5.323,4.892c1.362,0 2.724,-0.348 4.058,-0.681c-0.096,-0.834 -0.096,-1.863 -0.096,-2.238c0,-0.681 0.069,-1.404 0.125,-1.682c-0.473,0.07 -0.793,0.084 -1.21,0.084ZM192.23,65.643c-0.223,0 -0.556,-0.028 -0.778,-0.083c0.111,0.709 0.18,2.988 0.18,3.253l0,3.155c-1.168,-1.279 -4.156,-4.629 -5.518,-6.408c-0.264,0.042 -0.542,0.083 -0.82,0.083c-0.306,0 -0.612,-0.041 -0.931,-0.083c0.097,0.987 0.097,1.682 0.097,4.183c0,2.294 0,2.905 -0.208,5.463c0.263,-0.042 0.444,-0.083 0.722,-0.083c0.25,0 0.501,0.041 0.751,0.083c-0.056,-0.584 -0.167,-2.46 -0.167,-3.086l0,-3.474l3.559,4.002c1.487,1.752 1.654,1.947 2.098,2.558c0.25,-0.056 0.515,-0.083 0.807,-0.083c0.277,0 0.528,0.041 0.819,0.083c-0.11,-0.986 -0.11,-2.001 -0.11,-3.002c0,-1.543 0.055,-5.449 0.25,-6.644c-0.25,0.055 -0.501,0.083 -0.751,0.083ZM195.254,37.874c-2.432,0 -4.514,-0.042 -5.566,-0.165c0.063,0.288 0.104,0.597 0.104,0.907c0,0.35 -0.021,0.7 -0.104,1.051c1.525,-0.165 2.845,-0.186 3.835,-0.186c0.02,2.474 0.02,5.237 0.02,7.834c0,1.155 0,3.732 -0.206,4.701c0.557,-0.063 1.257,-0.124 1.834,-0.124c0.578,0 1.444,0.042 2.041,0.124c-0.102,-1.134 -0.143,-2.268 -0.143,-3.505c0,-1.361 0.02,-3.938 0.02,-5.154c0,-1.567 0,-2.968 0.041,-3.876c1.155,0 2.474,0.042 3.691,0.186c-0.042,-0.227 -0.104,-0.639 -0.104,-0.969c0,-0.309 0.041,-0.618 0.104,-0.989c-1.341,0.123 -3.01,0.165 -5.567,0.165l0,0ZM212.343,67.367c-0.055,-0.501 -0.111,-1.279 -0.152,-1.807c-0.292,0.055 -0.501,0.083 -0.862,0.083c-0.333,0 -0.667,-0.014 -1.001,-0.083c-0.139,0.43 -0.222,0.694 -0.556,1.487c-0.695,1.668 -1.445,3.322 -2.224,4.962c-0.598,-1.237 -2.336,-5.407 -2.641,-6.449c-0.264,0.028 -0.625,0.083 -0.917,0.083c-0.279,0 -0.738,-0.041 -1.015,-0.083c-0.015,0.542 -0.069,1.084 -0.153,1.612l-0.959,6.394c-0.083,0.57 -0.195,1.098 -0.32,1.64c0.264,-0.042 0.542,-0.083 0.779,-0.083c0.25,0 0.5,0.027 0.75,0.083c0,-0.806 0.069,-1.557 0.125,-2.279c0.111,-1.362 0.292,-2.738 0.487,-4.101c0.653,1.418 1.292,2.85 1.918,4.281c0.5,1.154 0.653,1.64 0.792,2.099c0.125,-0.027 0.278,-0.042 0.515,-0.042c0.222,0 0.403,0.028 0.5,0.042c0.209,-0.569 0.278,-0.75 0.82,-2.029c0.932,-2.183 1.028,-2.433 1.987,-4.393c0.042,0.487 0.292,2.85 0.348,3.392c0.181,1.668 0.209,2.405 0.223,3.03c0.403,-0.056 0.722,-0.097 1.334,-0.097c0.459,0 0.82,0.028 1.265,0.097c-0.209,-1.084 -0.376,-2.196 -0.501,-3.294l-0.542,-4.545ZM167.76,65.671c-1.639,0 -3.044,-0.028 -3.753,-0.111c0.041,0.194 0.07,0.403 0.07,0.612c0,0.236 -0.014,0.472 -0.07,0.708c1.029,-0.11 1.918,-0.125 2.586,-0.125c0.014,1.668 0.014,3.53 0.014,5.282c0,0.778 0,2.516 -0.14,3.169c0.376,-0.042 0.849,-0.083 1.238,-0.083c0.388,0 0.972,0.027 1.376,0.083c-0.07,-0.765 -0.097,-1.529 -0.097,-2.363c0,-0.917 0.013,-2.654 0.013,-3.475c0,-1.057 0,-2.001 0.028,-2.613c0.779,0 1.668,0.028 2.488,0.125c-0.027,-0.153 -0.069,-0.431 -0.069,-0.653c0,-0.209 0.028,-0.417 0.069,-0.667c-0.903,0.083 -2.029,0.111 -3.753,0.111l0,0ZM177.16,65.365c-3.503,0 -5.422,2.155 -5.422,5.087c0,3.267 2.238,4.935 5.338,4.935c2.794,0 5.463,-1.626 5.463,-5.198c0,-3.211 -2.391,-4.824 -5.379,-4.824ZM177.076,74.4c-1.446,0 -2.808,-1.112 -2.808,-3.878c0,-2.182 0.806,-4.17 2.919,-4.17c1.807,0 2.822,1.571 2.822,3.864c0,2.655 -1.168,4.184 -2.933,4.184l0,0ZM219.92,65.365c-3.503,0 -5.422,2.155 -5.422,5.087c0,3.267 2.239,4.935 5.338,4.935c2.794,0 5.463,-1.626 5.463,-5.198c0,-3.211 -2.39,-4.824 -5.379,-4.824ZM219.836,74.4c-1.445,0 -2.807,-1.112 -2.807,-3.878c0,-2.182 0.806,-4.17 2.919,-4.17c1.806,0 2.821,1.571 2.821,3.864c0,2.655 -1.167,4.184 -2.933,4.184l0,0ZM185.895,51.892c0.681,0 1.237,0.042 1.876,0.124c-0.186,-1.815 -0.186,-4.886 -0.186,-6.845c0,-2.35 0.063,-5.112 0.206,-7.462c-0.288,0.041 -1.03,0.123 -1.875,0.123c-0.743,0 -1.381,-0.041 -1.938,-0.123c0.165,2.041 0.186,4.72 0.186,6.864c0,0.99 0,5.628 -0.207,7.443c0.639,-0.082 1.299,-0.124 1.938,-0.124ZM250.628,65.671c-1.64,0 -3.044,-0.028 -3.752,-0.111c0.04,0.194 0.069,0.403 0.069,0.612c0,0.236 -0.015,0.472 -0.069,0.708c1.028,-0.11 1.917,-0.125 2.584,-0.125c0.014,1.668 0.014,3.53 0.014,5.282c0,0.778 0,2.516 -0.139,3.169c0.375,-0.042 0.848,-0.083 1.238,-0.083c0.388,0 0.972,0.027 1.376,0.083c-0.07,-0.765 -0.098,-1.529 -0.098,-2.363c0,-0.917 0.014,-2.654 0.014,-3.475c0,-1.057 0,-2.001 0.028,-2.613c0.778,0 1.668,0.028 2.488,0.125c-0.028,-0.153 -0.069,-0.431 -0.069,-0.653c0,-0.209 0.027,-0.417 0.069,-0.667c-0.903,0.083 -2.029,0.111 -3.753,0.111l0,0ZM267.18,47.13l-0.803,-6.741c-0.084,-0.742 -0.166,-1.897 -0.228,-2.68c-0.433,0.082 -0.741,0.123 -1.277,0.123c-0.495,0 -0.991,-0.02 -1.485,-0.123c-0.206,0.639 -0.33,1.03 -0.825,2.206c-1.03,2.473 -2.144,4.926 -3.298,7.358c-0.887,-1.833 -3.464,-8.018 -3.917,-9.564c-0.391,0.041 -0.928,0.123 -1.36,0.123c-0.413,0 -1.093,-0.061 -1.505,-0.123c-0.022,0.804 -0.104,1.607 -0.228,2.391l-1.421,9.483c-0.124,0.845 -0.29,1.628 -0.475,2.433c0.392,-0.063 0.805,-0.124 1.154,-0.124c0.371,0 0.742,0.042 1.114,0.124c0,-1.196 0.103,-2.309 0.185,-3.381c0.165,-2.021 0.434,-4.062 0.722,-6.082c0.969,2.103 1.917,4.226 2.844,6.349c0.743,1.711 0.97,2.433 1.176,3.114c0.186,-0.041 0.412,-0.063 0.763,-0.063c0.329,0 0.598,0.041 0.742,0.063c0.309,-0.846 0.412,-1.114 1.216,-3.01c1.381,-3.237 1.525,-3.608 2.948,-6.515c0.062,0.722 0.433,4.226 0.516,5.031c0.267,2.473 0.308,3.566 0.329,4.494c0.599,-0.082 1.072,-0.145 1.979,-0.145c0.681,0 1.216,0.041 1.876,0.145c-0.309,-1.609 -0.556,-3.258 -0.742,-4.886ZM275.098,65.643c-0.222,0 -0.557,-0.028 -0.778,-0.083c0.111,0.709 0.181,2.988 0.181,3.253l0,3.155c-1.168,-1.279 -4.157,-4.629 -5.519,-6.408c-0.264,0.042 -0.542,0.083 -0.82,0.083c-0.306,0 -0.612,-0.041 -0.931,-0.083c0.097,0.987 0.097,1.682 0.097,4.183c0,2.294 0,2.905 -0.208,5.463c0.263,-0.042 0.444,-0.083 0.722,-0.083c0.25,0 0.5,0.041 0.75,0.083c-0.055,-0.584 -0.166,-2.46 -0.166,-3.086l0,-3.474l3.558,4.002c1.487,1.752 1.654,1.947 2.1,2.558c0.25,-0.056 0.513,-0.083 0.805,-0.083c0.278,0 0.529,0.041 0.82,0.083c-0.111,-0.986 -0.111,-2.001 -0.111,-3.002c0,-1.543 0.056,-5.449 0.25,-6.644c-0.25,0.055 -0.5,0.083 -0.75,0.083l0,0ZM277.86,37.42c-5.195,0 -8.039,3.195 -8.039,7.545c0,4.845 3.318,7.318 7.916,7.318c4.143,0 8.101,-2.412 8.101,-7.71c0,-4.762 -3.546,-7.153 -7.978,-7.153ZM277.737,50.82c-2.145,0 -4.164,-1.65 -4.164,-5.752c0,-3.236 1.195,-6.184 4.329,-6.184c2.68,0 4.184,2.329 4.184,5.731c0,3.938 -1.731,6.205 -4.349,6.205l0,0ZM260.027,65.365c-3.503,0 -5.421,2.155 -5.421,5.087c0,3.267 2.238,4.935 5.338,4.935c2.794,0 5.463,-1.626 5.463,-5.198c0,-3.211 -2.391,-4.824 -5.38,-4.824l0,0ZM259.944,74.4c-1.445,0 -2.808,-1.112 -2.808,-3.878c0,-2.182 0.806,-4.17 2.919,-4.17c1.807,0 2.822,1.571 2.822,3.864c0,2.655 -1.167,4.184 -2.933,4.184ZM234.991,65.643c-0.223,0 -0.556,-0.028 -0.779,-0.083c0.112,0.709 0.181,2.988 0.181,3.253l0,3.155c-1.168,-1.279 -4.156,-4.629 -5.519,-6.408c-0.263,0.042 -0.541,0.083 -0.82,0.083c-0.305,0 -0.611,-0.041 -0.931,-0.083c0.097,0.987 0.097,1.682 0.097,4.183c0,2.294 0,2.905 -0.208,5.463c0.264,-0.042 0.445,-0.083 0.723,-0.083c0.25,0 0.501,0.041 0.751,0.083c-0.056,-0.584 -0.167,-2.46 -0.167,-3.086l0,-3.474l3.558,4.002c1.488,1.752 1.655,1.947 2.099,2.558c0.25,-0.056 0.515,-0.083 0.807,-0.083c0.277,0 0.527,0.041 0.819,0.083c-0.111,-0.986 -0.111,-2.001 -0.111,-3.002c0,-1.543 0.055,-5.449 0.251,-6.644c-0.25,0.055 -0.501,0.083 -0.751,0.083ZM361.051,65.643c-0.222,0 -0.556,-0.028 -0.778,-0.083c0.111,0.709 0.181,2.988 0.181,3.253l0,3.155c-1.168,-1.279 -4.157,-4.629 -5.519,-6.408c-0.263,0.042 -0.542,0.083 -0.82,0.083c-0.306,0 -0.612,-0.041 -0.931,-0.083c0.097,0.987 0.097,1.682 0.097,4.183c0,2.294 0,2.905 -0.208,5.463c0.264,-0.042 0.444,-0.083 0.723,-0.083c0.249,0 0.499,0.041 0.75,0.083c-0.056,-0.584 -0.167,-2.46 -0.167,-3.086l0,-3.474l3.558,4.002c1.487,1.752 1.654,1.947 2.1,2.558c0.25,-0.056 0.513,-0.083 0.805,-0.083c0.279,0 0.529,0.041 0.821,0.083c-0.112,-0.986 -0.112,-2.001 -0.112,-3.002c0,-1.543 0.056,-5.449 0.25,-6.644c-0.25,0.055 -0.5,0.083 -0.75,0.083Z" style="fill:#004277;"/></svg>