<?xml version="1.0" standalone="no"?><!DOCTYPE svg PUBLIC "-//W3C//DTD SVG 1.1//EN" "http://www.w3.org/Graphics/SVG/1.1/DTD/svg11.dtd"><svg width="100%" height="100%" viewBox="0 0 387 56" version="1.1" xmlns="http://www.w3.org/2000/svg" xmlns:xlink="http://www.w3.org/1999/xlink" xml:space="preserve" style="fill-rule:evenodd;clip-rule:evenodd;stroke-linejoin:round;stroke-miterlimit:1.41421;"><g><path d="M24.623,40.938c0,-2.22 -0.568,-3.898 -1.703,-5.033c-1.135,-1.135 -3.199,-2.314 -6.193,-3.536c-5.463,-2.071 -9.393,-4.497 -11.787,-7.278c-2.395,-2.782 -3.593,-6.069 -3.593,-9.861c0,-4.59 1.628,-8.276 4.884,-11.058c3.255,-2.781 7.39,-4.172 12.405,-4.172c3.342,0 6.324,0.705 8.943,2.114c2.62,1.41 4.634,3.399 6.044,5.969c1.409,2.569 2.114,5.488 2.114,8.756l-10.964,0c0,-2.544 -0.543,-4.484 -1.628,-5.819c-1.085,-1.334 -2.651,-2.002 -4.697,-2.002c-1.921,0 -3.417,0.568 -4.49,1.703c-1.073,1.135 -1.609,2.663 -1.609,4.584c0,1.497 0.599,2.85 1.796,4.06c1.197,1.21 3.318,2.464 6.362,3.761c5.313,1.921 9.174,4.278 11.581,7.073c2.408,2.794 3.611,6.349 3.611,10.664c0,4.74 -1.509,8.445 -4.528,11.114c-3.018,2.67 -7.122,4.004 -12.311,4.004c-3.518,0 -6.723,-0.723 -9.617,-2.17c-2.894,-1.447 -5.158,-3.518 -6.792,-6.212c-1.634,-2.694 -2.451,-5.875 -2.451,-9.542l11.039,0c0,3.143 0.611,5.426 1.834,6.848c1.222,1.422 3.218,2.133 5.987,2.133c3.842,0 5.763,-2.033 5.763,-6.1Z" style="fill:#02488c;fill-rule:nonzero;"/><path d="M73.118,40.077c-0.229,5.187 -1.687,9.114 -4.375,11.781c-2.687,2.667 -6.479,4 -11.375,4c-5.146,0 -9.088,-1.693 -11.828,-5.078c-2.74,-3.386 -4.109,-8.214 -4.109,-14.485l0,-7.656c0,-6.25 1.416,-11.067 4.25,-14.453c2.833,-3.385 6.771,-5.078 11.812,-5.078c4.959,0 8.724,1.385 11.297,4.156c2.573,2.771 4.037,6.75 4.391,11.938l-9.219,0c-0.083,-3.209 -0.578,-5.422 -1.484,-6.641c-0.907,-1.219 -2.568,-1.828 -4.985,-1.828c-2.458,0 -4.198,0.859 -5.219,2.578c-1.02,1.719 -1.562,4.547 -1.625,8.484l0,8.594c0,4.521 0.506,7.625 1.516,9.313c1.01,1.687 2.745,2.531 5.203,2.531c2.417,0 4.084,-0.589 5,-1.766c0.917,-1.177 1.438,-3.307 1.563,-6.39l9.187,0Z" style="fill:#02488c;fill-rule:nonzero;"/><path d="M92.556,38.608l-4.563,0l0,16.625l-9.187,0l0,-45.5l14.656,0c4.604,0 8.161,1.193 10.672,3.578c2.51,2.386 3.765,5.776 3.765,10.172c0,6.042 -2.197,10.271 -6.593,12.687l7.968,18.625l0,0.438l-9.875,0l-6.843,-16.625ZM87.993,30.952l5.219,0c1.833,0 3.208,-0.61 4.125,-1.828c0.917,-1.219 1.375,-2.849 1.375,-4.891c0,-4.563 -1.781,-6.844 -5.344,-6.844l-5.375,0l0,13.563Z" style="fill:#02488c;fill-rule:nonzero;"/><rect x="114.618" y="9.733" width="9.188" height="45.5" style="fill:#02488c;fill-rule:nonzero;"/><path d="M140.712,39.233l0,16l-9.188,0l0,-45.5l15.5,0c4.5,0 8.089,1.396 10.766,4.187c2.677,2.792 4.016,6.417 4.016,10.875c0,4.459 -1.323,7.98 -3.969,10.563c-2.646,2.583 -6.313,3.875 -11,3.875l-6.125,0ZM140.712,31.577l6.312,0c1.75,0 3.105,-0.573 4.063,-1.719c0.958,-1.146 1.437,-2.813 1.437,-5c0,-2.271 -0.489,-4.078 -1.468,-5.422c-0.979,-1.344 -2.292,-2.026 -3.938,-2.047l-6.406,0l0,14.188Z" style="fill:#02488c;fill-rule:nonzero;"/><path d="M197.399,17.389l-11.25,0l0,37.844l-9.218,0l0,-37.844l-11.063,0l0,-7.656l31.531,0l0,7.656Z" style="fill:#02488c;fill-rule:nonzero;"/><path d="M233.837,36.577c0,6.104 -1.443,10.843 -4.328,14.218c-2.886,3.375 -6.891,5.063 -12.016,5.063c-5.104,0 -9.114,-1.672 -12.031,-5.016c-2.917,-3.343 -4.396,-8.026 -4.438,-14.047l0,-7.781c0,-6.25 1.448,-11.13 4.344,-14.64c2.896,-3.511 6.917,-5.266 12.063,-5.266c5.062,0 9.052,1.724 11.968,5.172c2.917,3.448 4.396,8.286 4.438,14.515l0,7.782ZM224.618,28.952c0,-4.104 -0.583,-7.157 -1.75,-9.157c-1.166,-2 -2.979,-3 -5.437,-3c-2.438,0 -4.24,0.964 -5.407,2.891c-1.166,1.927 -1.77,4.859 -1.812,8.797l0,8.094c0,3.979 0.594,6.911 1.781,8.797c1.188,1.885 3.021,2.828 5.5,2.828c2.396,0 4.177,-0.922 5.344,-2.766c1.167,-1.844 1.76,-4.703 1.781,-8.578l0,-7.906Z" style="fill:#02488c;fill-rule:nonzero;"/><path d="M254.212,38.608l-4.563,0l0,16.625l-9.187,0l0,-45.5l14.656,0c4.604,0 8.162,1.193 10.672,3.578c2.51,2.386 3.766,5.776 3.766,10.172c0,6.042 -2.198,10.271 -6.594,12.687l7.969,18.625l0,0.438l-9.875,0l-6.844,-16.625ZM249.649,30.952l5.219,0c1.834,0 3.209,-0.61 4.125,-1.828c0.917,-1.219 1.375,-2.849 1.375,-4.891c0,-4.563 -1.781,-6.844 -5.344,-6.844l-5.375,0l0,13.563Z" style="fill:#02488c;fill-rule:nonzero;"/><rect x="276.274" y="9.733" width="9.188" height="45.5" style="fill:#02488c;fill-rule:nonzero;"/><path d="M329.34,0.748l0,37.72c-0.05,5.663 -1.609,9.998 -4.678,13.004c-3.068,3.006 -7.471,4.509 -13.209,4.509c-5.838,0 -10.297,-1.521 -13.378,-4.565c-3.081,-3.043 -4.621,-7.447 -4.621,-13.209l0,-37.459l11.076,0l0,37.496c0,3.093 0.499,5.301 1.497,6.623c0.998,1.323 2.807,1.984 5.426,1.984c2.619,0 4.416,-0.655 5.389,-1.965c0.972,-1.31 1.471,-3.461 1.496,-6.455l0,-37.683l11.002,0Z" style="fill:#e0a725;fill-rule:nonzero;"/><path d="M352.054,0.748l10.291,39.404l10.253,-39.404l14.37,0l0,54.485l-11.039,0l0,-14.744l1.01,-22.714l-10.889,37.458l-7.484,0l-10.89,-37.458l1.011,22.714l0,14.744l-11.002,0l0,-54.485l14.369,0Z" style="fill:#e0a725;fill-rule:nonzero;"/></g></svg>
