<?xml version="1.0" standalone="no"?><!DOCTYPE svg PUBLIC "-//W3C//DTD SVG 1.1//EN" "http://www.w3.org/Graphics/SVG/1.1/DTD/svg11.dtd"><svg width="100%" height="100%" viewBox="0 0 1664 1664" version="1.1" xmlns="http://www.w3.org/2000/svg" xmlns:xlink="http://www.w3.org/1999/xlink" xml:space="preserve" style="fill-rule:evenodd;clip-rule:evenodd;stroke-linejoin:round;stroke-miterlimit:1.41421;"><path d="M1152,704c0,-123.333 -43.833,-228.833 -131.5,-316.5c-87.667,-87.667 -193.167,-131.5 -316.5,-131.5c-123.333,0 -228.833,43.833 -316.5,131.5c-87.667,87.667 -131.5,193.167 -131.5,316.5c0,123.333 43.833,228.833 131.5,316.5c87.667,87.667 193.167,131.5 316.5,131.5c123.333,0 228.833,-43.833 316.5,-131.5c87.667,-87.667 131.5,-193.167 131.5,-316.5ZM1664,1536c0,34.667 -12.667,64.667 -38,90c-25.333,25.333 -55.333,38 -90,38c-36,0 -66,-12.667 -90,-38l-343,-342c-119.333,82.667 -252.333,124 -399,124c-95.333,0 -186.5,-18.5 -273.5,-55.5c-87,-37 -162,-87 -225,-150c-63,-63 -113,-138 -150,-225c-37,-87 -55.5,-178.167 -55.5,-273.5c0,-95.333 18.5,-186.5 55.5,-273.5c37,-87 87,-162 150,-225c63,-63 138,-113 225,-150c87,-37 178.167,-55.5 273.5,-55.5c95.333,0 186.5,18.5 273.5,55.5c87,37 162,87 225,150c63,63 113,138 150,225c37,87 55.5,178.167 55.5,273.5c0,146.667 -41.333,279.667 -124,399l343,343c24.667,24.667 37,54.667 37,90Z" style="fill:#e0a724;fill-rule:nonzero;"/></svg>